<svg width="30" height="30" viewBox="0 0 30 30" fill="none" xmlns="http://www.w3.org/2000/svg">
<path d="M21.8793 0H8.12073C3.64288 0 0 3.64288 0 8.12073V21.8795C0 26.3571 3.64288 30 8.12073 30H21.8795C26.3571 30 30 26.3571 30 21.8795V8.12073C30 3.64288 26.3571 0 21.8793 0V0ZM28.2413 21.8795C28.2413 25.3873 25.3873 28.2413 21.8793 28.2413H8.12073C4.61266 28.2413 1.75873 25.3873 1.75873 21.8795V8.12073C1.75873 4.61266 4.61266 1.75873 8.12073 1.75873H21.8795C25.3873 1.75873 28.2413 4.61266 28.2413 8.12073V21.8795Z" fill="#114A90"/>
<path d="M15 6.79712C10.4769 6.79712 6.79712 10.4769 6.79712 15C6.79712 19.5232 10.4769 23.2029 15 23.2029C19.5232 23.2029 23.2029 19.5232 23.2029 15C23.2029 10.4769 19.5232 6.79712 15 6.79712ZM15 21.4442C11.4469 21.4442 8.55585 18.5534 8.55585 15C8.55585 11.4469 11.4469 8.55585 15 8.55585C18.5534 8.55585 21.4442 11.4469 21.4442 15C21.4442 18.5534 18.5534 21.4442 15 21.4442Z" fill="#114A90"/>
<path d="M23.3991 3.88391C22.0624 3.88391 20.9752 4.97133 20.9752 6.30777C20.9752 7.64444 22.0624 8.73186 23.3991 8.73186C24.7357 8.73186 25.8232 7.64444 25.8232 6.30777C25.8232 4.9711 24.7357 3.88391 23.3991 3.88391ZM23.3991 6.9729C23.0324 6.9729 22.7339 6.67444 22.7339 6.30777C22.7339 5.94087 23.0324 5.64264 23.3991 5.64264C23.766 5.64264 24.0644 5.94087 24.0644 6.30777C24.0644 6.67444 23.766 6.9729 23.3991 6.9729Z" fill="#114A90"/>
</svg>
