<svg width="30" height="30" viewBox="0 0 30 30" fill="none" xmlns="http://www.w3.org/2000/svg">
<path d="M0.974186 29.9999H4.87424C5.4123 29.9999 5.84843 29.5224 5.84843 28.9334V10.2715C5.84843 9.68246 5.4123 9.20508 4.87424 9.20508H0.974186C0.436077 9.20508 0 9.68246 0 10.2715V28.9334C0 29.5224 0.436077 29.9999 0.974186 29.9999Z" fill="#114A90"/>
<path d="M0.974186 5.92427H4.87424C5.4123 5.92427 5.84843 5.44683 5.84843 4.8578V1.06647C5.84843 0.477445 5.4123 0 4.87424 0H0.974186C0.436077 0 0 0.477445 0 1.06647V4.8578C0 5.44683 0.436077 5.92427 0.974186 5.92427Z" fill="#114A90"/>
<path d="M28.5326 11.3696C27.9846 10.5799 27.1765 9.93048 26.108 9.42143C25.0395 8.91273 23.86 8.6582 22.5696 8.6582C19.95 8.6582 17.7302 9.75265 15.9104 11.942C15.5483 12.3776 15.2851 12.2824 15.2851 11.6933V10.2716C15.2851 9.68249 14.8489 9.2051 14.3108 9.2051H10.827C10.2889 9.2051 9.85278 9.68249 9.85278 10.2716V28.9334C9.85278 29.5225 10.2889 30 10.827 30H14.727C15.2651 30 15.7012 29.5225 15.7012 28.9334V22.4433C15.7012 19.7395 15.8504 17.8863 16.1486 16.8838C16.4468 15.8813 16.9985 15.0763 17.8033 14.4687C18.6081 13.8611 19.5169 13.5571 20.5299 13.5571C21.3208 13.5571 21.9973 13.7698 22.5593 14.1953C23.1213 14.6207 23.5272 15.2166 23.777 15.9839C24.0268 16.751 24.1517 18.4408 24.1517 21.0536V28.9334C24.1517 29.5224 24.5877 29.9999 25.1258 29.9999H29.0259C29.5639 29.9999 30 29.5224 30 28.9334V18.3648C30 16.4966 29.8924 15.061 29.6776 14.0586C29.4627 13.0561 29.081 12.1598 28.5326 11.3696Z" fill="#114A90"/>
</svg>
