<svg width="30" height="30" viewBox="0 0 30 30" fill="none" xmlns="http://www.w3.org/2000/svg">
<g clip-path="url(#clip0)">
<path d="M21.8838 17.8837L21.8726 17.9775C19.1238 16.6075 18.8363 16.425 18.4813 16.9575C18.2351 17.3262 17.5176 18.1625 17.3013 18.41C17.0826 18.6537 16.8651 18.6725 16.4938 18.5037C16.1188 18.3162 14.9151 17.9225 13.49 16.6475C12.38 15.6537 11.6351 14.435 11.4151 14.06C11.0488 13.4275 11.8151 13.3375 12.5126 12.0175C12.6376 11.755 12.5738 11.5487 12.4813 11.3625C12.3875 11.175 11.6413 9.33747 11.3288 8.60497C11.0288 7.87497 10.72 7.96747 10.4888 7.96747C9.7688 7.90497 9.24255 7.91497 8.7788 8.39747C6.7613 10.615 7.27005 12.9025 8.9963 15.335C12.3888 19.775 14.1963 20.5925 17.5013 21.7275C18.3938 22.0112 19.2076 21.9712 19.8513 21.8787C20.5688 21.765 22.0601 20.9775 22.3713 20.0962C22.6901 19.215 22.6901 18.4837 22.5963 18.315C22.5038 18.1462 22.2588 18.0525 21.8838 17.8837Z" fill="#114A90"/>
<path d="M25.65 4.31094C16.0387 -4.98032 0.1325 1.75844 0.12625 14.8659C0.12625 17.4859 0.8125 20.0409 2.12 22.2972L0 29.9997L7.91875 27.9347C17.8 33.2722 29.995 26.1847 30 14.8734C30 10.9034 28.45 7.16719 25.6312 4.35969L25.65 4.31094ZM27.5025 14.8322C27.495 24.3734 17.0212 30.3322 8.7375 25.4622L8.2875 25.1947L3.6 26.4134L4.85625 21.8572L4.5575 21.3884C-0.5975 13.1822 5.325 2.45719 15.09 2.45719C18.4075 2.45719 21.5212 3.75094 23.8663 6.09469C26.21 8.41844 27.5025 11.5322 27.5025 14.8322Z" fill="#114A90"/>
</g>
<defs>
<clipPath id="clip0">
<rect width="30" height="30" fill="white"/>
</clipPath>
</defs>
</svg>
